<?xml version="1.0" standalone="no"?>
<!DOCTYPE svg PUBLIC "-//W3C//DTD SVG 20010904//EN"
 "http://www.w3.org/TR/2001/REC-SVG-20010904/DTD/svg10.dtd">
<svg version="1.0" xmlns="http://www.w3.org/2000/svg"
 width="1080.000000pt" height="1080.000000pt" viewBox="0 0 1080.000000 1080.000000"
 preserveAspectRatio="xMidYMid meet">
<metadata>
Created by potrace 1.11, written by Peter Selinger 2001-2013
</metadata>
<g transform="translate(0.000000,1080.000000) scale(0.100000,-0.100000)"
fill="#000000" stroke="none">
<path d="M5610 9513 c10 -21 25 -54 33 -73 32 -73 130 -297 154 -350 14 -30
49 -109 78 -175 29 -66 62 -142 75 -170 13 -27 31 -69 41 -92 l18 -42 -37 -10
c-64 -17 -628 -161 -832 -212 -107 -27 -220 -57 -250 -65 l-54 -16 159 -53
c155 -51 469 -164 530 -190 17 -7 73 -29 125 -50 548 -212 1191 -526 1665
-813 125 -76 502 -326 515 -341 3 -3 32 -26 65 -51 71 -53 70 -52 165 -130
176 -145 355 -317 470 -449 30 -35 60 -69 65 -75 28 -31 137 -180 177 -241
155 -238 264 -512 295 -745 15 -111 6 -460 -11 -489 -2 -3 -7 -24 -10 -46 -8
-49 -53 -203 -66 -227 -6 -10 -10 -23 -10 -28 0 -23 -132 -293 -156 -321 -8
-8 -14 -19 -14 -23 0 -21 -216 -317 -304 -416 -157 -177 -493 -489 -686 -635
-36 -28 -67 -52 -70 -55 -16 -18 -249 -183 -390 -277 -255 -170 -567 -360
-795 -483 -33 -18 -86 -48 -117 -66 -32 -18 -58 -31 -58 -27 0 3 -7 -1 -16 -8
-29 -24 -568 -296 -764 -386 -104 -47 -120 -56 -117 -60 2 -2 53 15 113 38
153 57 363 138 399 154 17 7 100 41 185 75 301 121 613 257 945 413 120 56
579 287 660 332 461 255 762 442 1055 655 96 69 333 252 350 270 3 3 43 38 90
79 134 116 387 376 484 496 199 248 355 521 436 763 74 222 95 347 95 582 0
177 -5 235 -34 375 -142 686 -699 1395 -1641 2090 -261 193 -772 522 -1052
679 -275 152 -356 196 -633 336 -236 119 -417 206 -565 272 -36 16 -78 35 -95
43 -134 64 -648 275 -670 275 -11 0 -10 -7 5 -37z"/>
<path d="M4880 9200 c-9 -6 -10 -10 -3 -10 6 0 15 5 18 10 8 12 4 12 -15 0z"/>
<path d="M4840 9183 c-27 -10 -494 -210 -540 -231 -25 -11 -126 -57 -225 -102
-1451 -661 -2524 -1408 -3083 -2150 -40 -52 -77 -100 -82 -107 -6 -7 -10 -16
-10 -20 0 -4 -9 -19 -20 -33 -51 -63 -166 -268 -214 -380 -15 -36 -34 -78 -41
-95 -23 -52 -85 -248 -80 -253 3 -3 1 -10 -4 -16 -5 -6 -12 -29 -15 -51 -4
-22 -8 -47 -11 -55 -2 -8 -7 -31 -9 -50 -3 -19 -7 -45 -10 -58 -6 -27 -17
-183 -18 -262 -4 -215 56 -534 139 -740 6 -14 19 -45 28 -70 19 -47 138 -294
155 -320 5 -8 37 -60 71 -114 88 -143 201 -299 294 -407 16 -19 53 -62 80 -94
146 -173 402 -423 635 -621 435 -368 1059 -793 1610 -1096 25 -14 71 -39 103
-57 263 -146 743 -384 987 -490 82 -36 109 -48 152 -69 10 -4 2 22 -35 108 -8
19 -18 46 -22 60 -4 14 -16 43 -25 65 -16 35 -30 69 -35 85 -1 3 -6 16 -12 30
-6 14 -30 72 -53 130 -23 58 -63 157 -88 220 -26 63 -47 117 -48 120 0 3 -5
16 -11 30 -6 14 -18 42 -26 62 l-16 37 32 9 c272 77 693 196 841 236 104 29
185 55 180 58 -5 4 -70 29 -145 56 -166 61 -354 137 -514 207 -434 191 -781
364 -1115 558 -19 11 -55 31 -80 45 -25 13 -52 31 -61 38 -8 8 -18 14 -22 14
-8 0 -331 208 -390 251 -23 16 -85 61 -137 99 -52 38 -100 72 -105 77 -130
104 -212 170 -221 178 -6 5 -46 42 -90 80 -99 88 -283 273 -349 350 -57 66
-122 145 -133 160 -4 6 -26 35 -48 65 -44 57 -115 166 -155 235 -54 95 -152
305 -164 355 -1 3 -4 12 -8 20 -9 23 -45 152 -51 180 -2 14 -7 36 -10 50 -24
102 -31 189 -29 360 1 136 6 188 28 295 30 144 30 144 38 165 3 8 14 42 25 75
38 112 59 166 71 178 6 6 11 17 11 23 0 15 86 181 141 271 39 64 176 262 189
273 3 3 21 25 40 50 19 25 39 50 45 56 5 6 32 38 60 70 61 73 347 359 435 436
155 134 167 144 323 266 207 163 587 427 795 553 40 24 94 57 120 73 26 16 61
37 77 46 17 10 82 48 145 85 183 107 441 249 638 350 50 26 92 49 92 51 0 4 1
5 -20 -3z"/>
<path d="M4651 7960 c-7 -4 -12 -10 -11 -14 0 -3 -20 -49 -45 -101 -25 -51
-45 -96 -45 -99 0 -3 -13 -33 -30 -68 -16 -35 -93 -207 -170 -383 -143 -322
-159 -359 -200 -450 -13 -27 -22 -51 -22 -52 1 -2 -19 -47 -44 -100 -25 -54
-54 -118 -64 -143 -10 -25 -34 -80 -54 -123 -20 -43 -36 -80 -36 -82 0 -2 -16
-38 -36 -82 -42 -91 -58 -127 -110 -248 -21 -49 -42 -93 -47 -96 -5 -3 -8 -8
-7 -10 2 -6 -10 -41 -30 -84 -10 -22 -35 -78 -56 -125 -20 -47 -43 -101 -52
-120 -8 -19 -17 -42 -18 -50 -2 -8 -8 -16 -13 -18 -6 -2 -11 -10 -11 -18 0 -8
-8 -29 -17 -47 -9 -18 -16 -35 -15 -39 1 -5 -2 -8 -8 -8 -5 0 -7 -6 -4 -14 3
-7 -1 -20 -9 -28 -8 -8 -18 -29 -22 -46 -4 -21 -11 -30 -18 -25 -7 3 -9 3 -5
-2 4 -4 1 -20 -8 -36 -8 -16 -11 -29 -7 -29 5 0 2 -4 -5 -9 -7 -4 -14 -18 -15
-29 -1 -12 -4 -22 -8 -22 -3 0 -21 -37 -39 -82 -17 -46 -37 -89 -42 -95 -6 -7
-8 -13 -4 -13 3 0 -3 -16 -15 -36 -11 -20 -18 -39 -15 -42 3 -3 1 -11 -5 -19
-6 -7 -8 -13 -5 -13 4 0 -2 -17 -13 -37 -34 -64 -91 -195 -91 -209 0 -8 -4
-14 -10 -14 -5 0 -10 -7 -10 -16 0 -9 -7 -28 -15 -42 -21 -39 -48 -106 -47
-114 1 -5 -3 -8 -10 -8 -6 0 -9 -3 -5 -6 3 -3 -6 -28 -19 -55 -14 -27 -22 -54
-18 -61 4 -7 3 -8 -4 -4 -11 6 -16 -6 -13 -26 0 -5 -4 -8 -11 -8 -6 0 -9 -3
-5 -6 3 -3 -3 -23 -14 -42 -10 -20 -19 -41 -19 -46 0 -5 -8 -18 -17 -29 -10
-11 -12 -17 -5 -13 7 4 4 -8 -7 -27 -21 -38 -19 -47 11 -47 13 0 17 -4 12 -12
-5 -9 -3 -9 9 1 14 11 18 11 24 -5 8 -20 25 -27 57 -26 10 1 27 -8 38 -18 l21
-19 -23 -48 c-41 -88 -50 -120 -36 -132 7 -6 16 -8 19 -4 4 3 7 1 7 -6 0 -7
10 -11 23 -9 18 2 26 15 41 66 11 34 23 62 27 62 9 0 88 -115 133 -193 24 -41
29 -46 47 -37 11 7 17 16 13 23 -4 7 1 4 12 -5 26 -23 49 -9 41 24 -4 14 -9
44 -12 69 -3 24 -9 74 -13 112 -7 57 -6 72 10 97 10 17 16 30 14 30 -2 0 9 28
26 63 17 34 50 107 75 162 25 55 55 123 68 150 66 147 88 195 255 570 78 176
151 340 163 365 11 25 28 64 38 88 11 24 22 42 27 40 46 -19 162 -95 162 -105
0 -7 7 -13 15 -13 7 0 18 -6 22 -14 4 -8 13 -15 18 -16 6 0 24 -9 40 -19 17
-9 32 -17 35 -17 3 1 19 -9 35 -20 17 -12 53 -33 80 -48 28 -14 57 -30 65 -36
16 -10 151 -85 240 -133 30 -17 114 -62 185 -102 72 -40 166 -92 210 -115 44
-24 115 -63 157 -87 43 -23 82 -43 87 -43 5 0 11 -3 13 -7 2 -5 26 -19 53 -33
28 -14 52 -27 55 -30 3 -3 34 -21 70 -39 36 -19 79 -43 95 -52 17 -10 68 -37
115 -61 47 -24 87 -46 90 -49 10 -11 205 -114 213 -111 4 1 7 -3 7 -8 0 -10
48 -35 63 -32 4 1 7 -3 7 -8 0 -6 7 -10 15 -10 8 0 15 -3 15 -7 0 -9 48 -33
66 -33 6 0 15 -7 18 -16 3 -8 10 -13 15 -10 5 3 19 -2 32 -12 13 -10 38 -24
54 -32 17 -8 32 -17 35 -20 3 -3 27 -17 55 -30 27 -14 56 -31 63 -38 8 -7 18
-10 23 -7 5 4 9 0 9 -8 0 -7 6 -14 13 -14 19 0 87 -34 87 -44 0 -5 7 -9 15 -9
22 0 76 -36 67 -44 -4 -4 -2 -6 3 -5 6 2 20 -2 31 -9 12 -6 24 -8 28 -5 3 3 6
2 6 -4 0 -6 28 -26 63 -43 34 -18 65 -38 69 -44 4 -6 8 -8 8 -4 0 4 16 -4 36
-17 20 -14 41 -25 46 -25 5 0 29 -13 52 -30 24 -16 46 -26 50 -23 3 4 6 1 6
-6 0 -7 4 -9 10 -6 6 3 10 2 10 -3 0 -5 23 -19 52 -33 28 -13 57 -28 63 -34 6
-5 30 -21 54 -33 66 -36 73 -14 24 81 -2 4 3 7 12 7 9 0 13 -4 10 -10 -3 -5 0
-10 8 -10 7 0 23 -9 34 -19 12 -11 24 -17 27 -14 3 4 6 1 6 -5 0 -7 3 -11 8
-10 4 1 25 -9 47 -23 22 -13 44 -23 48 -21 4 1 10 -4 13 -12 3 -8 13 -12 25
-9 16 5 18 8 7 14 -11 7 -10 9 1 9 12 0 12 3 -1 18 -8 9 -18 25 -21 35 -7 20
-83 146 -664 1107 -617 1020 -1046 1726 -1145 1882 -15 24 -37 62 -49 86 -12
23 -26 42 -31 42 -4 0 -8 5 -8 10 0 6 -12 29 -27 53 -15 23 -34 56 -43 72 -8
17 -23 39 -33 50 -9 11 -18 25 -19 30 -1 6 -10 19 -20 29 -9 10 -15 23 -12 28
3 4 0 8 -7 8 -7 0 -10 3 -6 6 5 6 0 15 -30 48 -7 8 -9 16 -6 20 4 3 2 6 -3 6
-6 0 -23 22 -39 50 -17 27 -34 50 -38 50 -5 0 -5 5 -2 10 3 6 1 10 -4 10 -6 0
-11 6 -11 13 0 7 -8 22 -17 33 -10 11 -29 41 -43 67 -13 26 -28 47 -33 47 -4
0 -6 4 -3 9 3 5 -1 14 -9 21 -8 7 -15 19 -15 26 0 8 -4 14 -10 14 -5 0 -10 7
-10 15 0 8 -5 15 -11 15 -5 0 -7 5 -4 10 3 6 1 10 -4 10 -6 0 -11 7 -11 15 0
8 -8 23 -19 34 -10 10 -27 33 -37 52 -11 18 -25 40 -31 47 -12 13 -17 28 -14
45 0 4 -5 7 -12 7 -7 0 -13 9 -14 20 -1 11 -9 27 -17 36 -9 8 -16 19 -16 24 0
5 -7 6 -17 3 -11 -4 -14 -3 -9 5 4 7 3 12 -2 12 -5 0 -13 10 -19 23 -6 12 -20
23 -32 24 -12 1 -19 -2 -16 -8 4 -5 2 -9 -2 -9 -5 0 -19 -25 -32 -55 l-24 -55
-20 32 c-11 18 -23 34 -28 36 -4 2 -6 9 -3 16 3 8 -2 16 -10 19 -9 4 -16 11
-16 17 0 6 -7 22 -16 36 -17 25 -17 25 -35 5 -11 -11 -19 -25 -19 -31 0 -5 -4
-10 -10 -10 -6 0 -9 6 -7 13 1 6 -4 11 -11 9 -8 -1 -11 1 -8 6 3 5 -2 19 -10
31 -13 18 -18 20 -31 10 -12 -10 -16 -10 -24 2 -5 8 -9 19 -9 25 0 16 -24 24
-39 14z m-241 -949 c0 -5 -15 -42 -34 -83 -18 -40 -129 -289 -245 -553 -117
-264 -224 -505 -238 -535 -14 -30 -32 -72 -40 -93 -9 -21 -17 -36 -19 -34 -3
2 10 37 27 78 17 41 37 88 44 104 7 17 36 89 64 160 29 72 57 139 61 150 5 11
77 178 159 370 194 455 190 445 206 445 8 0 15 -4 15 -9z m-119 -34 c-10 -9
-11 -8 -5 6 3 10 9 15 12 12 3 -3 0 -11 -7 -18z m278 12 c17 -6 31 -13 31 -15
0 -4 -99 -228 -143 -324 -14 -30 -53 -118 -87 -195 -34 -77 -70 -158 -80 -180
-14 -32 -197 -439 -255 -570 -8 -16 -34 -74 -59 -129 -25 -54 -46 -100 -46
-101 0 -2 -58 -129 -129 -282 -218 -472 -351 -746 -359 -739 -2 3 3 39 13 82
14 65 57 171 164 408 11 22 101 226 201 451 100 226 192 433 205 460 12 28 57
129 100 225 42 96 90 203 106 238 16 35 29 65 29 67 0 2 18 42 40 89 22 47 40
87 40 90 0 2 20 47 45 100 25 53 45 99 45 101 0 3 13 33 29 67 15 35 39 87 51
116 12 28 23 52 25 52 1 0 16 -5 34 -11z m88 -76 c-8 -21 -26 -63 -40 -93 -14
-30 -74 -163 -132 -294 -58 -132 -114 -258 -124 -280 -10 -23 -83 -185 -161
-361 -78 -176 -155 -348 -171 -383 -16 -35 -29 -65 -29 -67 0 -2 -15 -36 -34
-77 -19 -40 -61 -134 -94 -208 -33 -74 -71 -160 -85 -190 -14 -30 -77 -170
-140 -310 -164 -365 -246 -540 -252 -540 -9 0 18 77 53 150 46 99 77 166 122
270 18 41 50 113 71 158 22 46 39 85 39 87 0 2 16 37 35 79 19 42 51 110 70
152 19 42 35 78 35 80 0 2 14 34 31 71 17 38 99 219 181 403 83 184 160 357
173 385 13 27 76 169 140 315 65 146 137 307 161 358 24 52 44 96 44 98 0 3 9
24 19 47 11 23 35 78 55 121 36 79 62 102 33 29z m213 -66 c198 -123 500 -403
661 -612 13 -16 29 -34 35 -40 23 -20 224 -285 345 -455 201 -281 569 -843
569 -867 0 -6 -37 -18 -82 -29 -103 -22 -346 -27 -468 -9 -147 22 -163 25
-250 46 -47 11 -94 22 -105 25 -41 8 -328 105 -423 143 -119 47 -175 73 -272
127 -41 22 -163 86 -270 141 -151 77 -198 97 -207 88 -9 -9 -9 -15 0 -24 18
-18 5 -13 -75 28 -41 21 -90 42 -109 46 -28 6 -116 41 -127 50 -1 1 16 42 38
91 62 135 64 139 130 289 34 77 74 167 89 200 15 33 105 236 201 452 l173 392
41 -21 c23 -12 70 -39 106 -61z m898 -409 c34 -43 62 -82 62 -87 0 -5 4 -11 8
-13 4 -1 23 -25 42 -53 19 -27 37 -52 40 -55 6 -5 119 -172 194 -285 22 -33
44 -61 48 -63 4 -2 8 -8 8 -13 0 -5 30 -56 68 -113 37 -56 72 -111 79 -122 6
-10 72 -116 146 -234 189 -301 332 -533 372 -602 5 -10 55 -91 109 -180 118
-194 115 -187 89 -165 -11 9 -32 17 -46 17 -29 0 -29 2 -30 83 0 30 -4 38 -22
43 -13 3 -32 1 -42 -5 -17 -9 -26 1 -76 83 -32 52 -57 105 -57 120 0 18 -7 30
-24 37 -13 6 -34 30 -47 53 -12 22 -30 52 -40 66 -27 40 -541 883 -553 907 -6
13 -14 23 -18 23 -5 0 -8 4 -8 9 0 5 -46 82 -101 172 -56 90 -111 180 -122
199 -10 19 -28 47 -38 62 -11 14 -19 29 -19 32 0 3 -16 30 -35 60 -19 30 -35
60 -35 66 0 5 -4 10 -8 10 -5 0 -15 12 -23 28 -21 42 -22 49 -2 22 10 -13 46
-59 81 -102z m619 -1193 c21 -42 1 -19 -26 30 -13 22 -15 31 -6 20 9 -11 23
-33 32 -50z m33 -55 c6 -11 8 -20 6 -20 -3 0 -10 9 -16 20 -6 11 -8 20 -6 20
3 0 10 -9 16 -20z m40 -61 c15 -28 5 -23 -15 7 -9 15 -12 23 -6 20 6 -4 16
-16 21 -27z m68 -113 c29 -47 52 -88 52 -92 0 -5 -25 31 -55 80 -30 48 -55 89
-55 92 0 12 11 -3 58 -80z"/>
<path d="M5445 1610 c-3 -6 1 -7 9 -4 18 7 21 14 7 14 -6 0 -13 -4 -16 -10z"/>
</g>
</svg>
